<?xml version="1.0" encoding="UTF-8" standalone="no"?>
<svg
   xmlns:dc="http://purl.org/dc/elements/1.1/"
   xmlns:cc="http://creativecommons.org/ns#"
   xmlns:rdf="http://www.w3.org/1999/02/22-rdf-syntax-ns#"
   xmlns:svg="http://www.w3.org/2000/svg"
   xmlns="http://www.w3.org/2000/svg"
   xmlns:sodipodi="http://sodipodi.sourceforge.net/DTD/sodipodi-0.dtd"
   xmlns:inkscape="http://www.inkscape.org/namespaces/inkscape"
   version="1.0"
   width="2000.000000pt"
   height="1982.000000pt"
   viewBox="0 0 2000.000000 1982.000000"
   preserveAspectRatio="xMidYMid meet"
   id="svg3869"
   sodipodi:docname="celogog.svg"
   inkscape:version="0.92.4 (unknown)">
  <defs
     id="defs3873" />
  <sodipodi:namedview
     pagecolor="#ffffff"
     bordercolor="#666666"
     borderopacity="1"
     objecttolerance="10"
     gridtolerance="10"
     guidetolerance="10"
     inkscape:pageopacity="0"
     inkscape:pageshadow="2"
     inkscape:window-width="1920"
     inkscape:window-height="1016"
     id="namedview3871"
     showgrid="false"
     inkscape:zoom="0.089303734"
     inkscape:cx="1333.3333"
     inkscape:cy="1321.3333"
     inkscape:window-x="0"
     inkscape:window-y="27"
     inkscape:window-maximized="1"
     inkscape:current-layer="svg3869" />
  <metadata
     id="metadata3855">
Created by potrace 1.15, written by Peter Selinger 2001-2017
<rdf:RDF>
  <cc:Work
     rdf:about="">
    <dc:format>image/svg+xml</dc:format>
    <dc:type
       rdf:resource="http://purl.org/dc/dcmitype/StillImage" />
  </cc:Work>
</rdf:RDF>
</metadata>
  <path
     style="fill:#013873;stroke:none;stroke-width:0.1;fill-opacity:1"
     inkscape:connector-curvature="0"
     id="path3857"
     d="m 1279.5,5.1 c -127.6,5.6 -295.7,31 -397,60 -167.4,48 -339.1,121.1 -478,203.7 -134.1,79.8 -240,168.4 -305.2,255.5 -11.5,15.3 -11.9,15.8 -10.1,15.2 0.7,-0.2 35.1,-9.4 76.3,-20.4 41.3,-11 86.9,-23.2 101.5,-27.1 14.6,-3.9 33.9,-9.1 43,-11.5 9.1,-2.4 29.3,-7.8 45,-12 15.7,-4.2 81.4,-21.7 146,-39 155.6,-41.6 296.5,-79.2 423,-113 171.6,-45.8 275.3,-73.5 360,-96.1 44.3,-11.8 81.3,-21.7 82.3,-22 1.6,-0.5 1.7,-5.8 1.5,-97.2 L 1367.5,4.5 1333,4.4 c -19,-0.1 -43,0.3 -53.5,0.7 z" />
  <path
     style="fill:#d60038;stroke:none;stroke-width:0.1;fill-opacity:1"
     inkscape:connector-curvature="0"
     id="path3859"
     d="m 1838.5,137.5 c -4.4,1.3 -25.1,6.9 -46,12.5 -20.9,5.6 -58.7,15.7 -84,22.5 -25.3,6.8 -82.2,22.1 -126.5,34 -149.3,40.1 -184.4,49.6 -204.5,55 -11,3 -47.9,12.9 -82,22 -34.1,9.2 -70.3,18.9 -80.5,21.6 -24.9,6.8 -44.6,12 -147,39.5 -48.1,13 -123.5,33.2 -167.5,45 -148.3,39.9 -250.8,67.4 -286.5,77 -51.7,13.9 -96.4,25.9 -113,30.4 -8,2.2 -71.4,19.2 -141,37.9 -69.6,18.7 -141.6,38 -160,43 -18.4,4.9 -66.3,17.8 -106.5,28.6 -40.1,10.7 -73.8,19.9 -74.8,20.3 -1.5,0.6 28.8,31.4 162.8,165.2 90.5,90.5 164.7,164.6 164.9,164.7 0.5,0.5 32.6,5.2 49.1,7.2 60.8,7.4 106.1,9.6 182,8.8 53.3,-0.6 66.2,-1.1 109.5,-4.2 143.5,-10.5 303.2,-40.2 450,-83.6 192.2,-56.9 399.4,-151.8 569,-260.5 l 14.6,-9.3 3.6,-13.8 c 2,-7.6 14.4,-54.1 27.6,-103.3 34.7,-129.2 63.4,-236.4 78.3,-292 7.2,-26.7 14.3,-53.3 16,-59.2 1.6,-5.9 2.9,-11 2.9,-11.3 0,-0.8 -2,-0.4 -10.5,2 z" />
  <path
     style="fill:#013873;stroke:none;stroke-width:0.1;fill-opacity:1"
     inkscape:connector-curvature="0"
     id="path3861"
     d="m 1982.8,489.7 c -9.3,9.7 -33.8,33.3 -43.8,42.2 -5.2,4.6 -11.3,10 -13.5,12 -6.9,6.3 -33.4,28.3 -48.5,40.2 -159.7,126.5 -384.9,247.5 -609.5,327.4 -294.1,104.6 -623.7,149.4 -875.5,119 -112.3,-13.6 -208.3,-41.3 -277.9,-80.2 -6.2,-3.5 -11.5,-6.2 -11.7,-6 -0.2,0.2 6.7,18.1 15.5,39.8 25.5,63.5 54.2,134.5 71.3,176.9 8.8,21.7 17.5,44.2 19.5,50 24.3,72.8 93.3,131.4 201.8,171.5 76.6,28.4 171.2,45.4 280.8,50.6 32.6,1.5 125.7,0.6 157.7,-1.5 184.2,-12.4 347.1,-46.4 554.2,-115.6 99.4,-33.3 178,-65.2 256.3,-104 72.8,-36.1 127.6,-69.1 182.5,-109.8 52.7,-39.1 102.9,-86.2 143.3,-134.4 l 4.7,-5.6 V 723.1 c 0,-131.5 -0.4,-239.1 -0.8,-239.1 -0.5,0 -3.4,2.6 -6.4,5.7 z" />
  <path
     style="fill:#013873;stroke:none;stroke-width:0.1;fill-opacity:1"
     inkscape:connector-curvature="0"
     id="path3863"
     d="m 22,728.7 c 0,1 0.6,5.7 1.4,10.4 10.7,66.1 60.6,122 145.1,162.5 14.8,7.1 48.3,20.9 49.1,20.2 0.3,-0.4 -192.4,-192.9 -194.4,-194.2 -0.8,-0.4 -1.2,0 -1.2,1.1 z" />
  <path
     style="fill:#d60038;stroke:none;stroke-width:0.1;fill-opacity:1"
     inkscape:connector-curvature="0"
     id="path3865"
     d="m 1530,1339.1 c -100.7,38.3 -216.3,75 -313,99.4 -77.4,19.4 -156.9,34.5 -237.5,45 -29,3.7 -69.3,8 -86.7,9.1 -6,0.4 -10.8,1 -10.8,1.4 0,1 484.8,485 485.8,485 0.5,0 1.3,-1.9 1.9,-4.2 0.5,-2.4 7.2,-27.3 14.7,-55.3 16.1,-59.6 42.3,-157.4 77.1,-287.5 6.4,-23.9 13.9,-51.8 16.6,-62 2.8,-10.2 10.2,-37.8 16.5,-61.4 6.3,-23.7 17.4,-64.8 24.5,-91.5 19.5,-72.6 21.8,-81.5 21.6,-81.7 -0.1,-0.2 -4.9,1.5 -10.7,3.7 z" />
</svg>
