<?xml version="1.0" encoding="UTF-8" standalone="no"?>
<!-- Created with Inkscape (http://www.inkscape.org/) -->

<svg
   width="50.566971mm"
   height="32.48518mm"
   viewBox="0 0 50.566971 32.48518"
   version="1.1"
   id="svg17124"
   inkscape:version="1.1 (c4e8f9ed74, 2021-05-24)"
   sodipodi:docname="Cevi Alpin.svg"
   xmlns:inkscape="http://www.inkscape.org/namespaces/inkscape"
   xmlns:sodipodi="http://sodipodi.sourceforge.net/DTD/sodipodi-0.dtd"
   xmlns="http://www.w3.org/2000/svg"
   xmlns:svg="http://www.w3.org/2000/svg">
  <sodipodi:namedview
     id="namedview17126"
     pagecolor="#ffffff"
     bordercolor="#666666"
     borderopacity="1.0"
     inkscape:pageshadow="2"
     inkscape:pageopacity="0.0"
     inkscape:pagecheckerboard="true"
     inkscape:document-units="mm"
     showgrid="false"
     inkscape:zoom="2.5585297"
     inkscape:cx="194.44761"
     inkscape:cy="71.916303"
     inkscape:window-width="1920"
     inkscape:window-height="1043"
     inkscape:window-x="0"
     inkscape:window-y="0"
     inkscape:window-maximized="1"
     inkscape:current-layer="layer4"
     fit-margin-top="0"
     fit-margin-left="0"
     fit-margin-right="0"
     fit-margin-bottom="0" />
  <defs
     id="defs17121" />
  <g
     inkscape:groupmode="layer"
     id="layer4"
     inkscape:label="Background"
     style="display:inline"
     transform="translate(-80.310124,-174.9796)">
    <rect
       style="fill:#19608a;fill-opacity:1;stroke:#19608a;stroke-width:0.207435;stroke-opacity:1"
       id="rect17192-6"
       width="50.359535"
       height="32.277744"
       x="80.413841"
       y="175.08331" />
  </g>
  <g
     inkscape:label="Layer 1"
     inkscape:groupmode="layer"
     id="layer1"
     sodipodi:insensitive="true"
     style="display:inline"
     transform="translate(-80.310124,-174.9796)">
    <path
       style="fill:#000000;stroke-width:0.352778"
       id="path18253"
       d="" />
    <path
       style="fill:#000000;stroke-width:0.352778"
       id="path18233"
       d="" />
    <path
       style="fill:#000000;stroke-width:0.352778"
       id="path18730"
       d="" />
    <path
       style="fill:#000000;stroke-width:0.352778"
       id="path18710"
       d="" />
    <g
       id="g19148"
       transform="translate(-53.039984,42.765816)"
       style="fill:#ffffff">
      <path
         style="fill:#ffffff;stroke-width:0.352778"
         d="m 137.6621,160.83586 c -0.70464,-0.70463 -0.88511,-1.23834 -0.88511,-2.61746 0,-2.80395 1.83757,-4.38182 4.36444,-3.74762 0.74455,0.18687 0.92722,0.4422 0.92722,1.29601 0,0.88529 -0.085,0.99273 -0.50783,0.64182 -0.84679,-0.70278 -2.40973,-0.29966 -3.00882,0.77604 -0.48601,0.87269 -0.48516,1.0676 0.008,1.94028 0.5631,0.99546 1.56233,1.20863 2.91893,0.6227 0.55245,-0.23861 0.62871,-0.13197 0.52917,0.73988 -0.10794,0.94532 -0.23675,1.0264 -1.78884,1.12607 -1.39727,0.0897 -1.81821,-0.0383 -2.55764,-0.77772 z m 5.11211,-2.68107 v -3.52778 h 1.94028 c 1.70509,0 1.94028,0.0855 1.94028,0.70556 0,0.54877 -0.23519,0.70556 -1.05834,0.70556 -0.70555,0 -1.05833,0.17638 -1.05833,0.52916 0,0.35278 0.35278,0.52917 1.05833,0.52917 0.89371,0 1.05834,0.13719 1.05834,0.88194 0,0.74476 -0.16463,0.88195 -1.05834,0.88195 -0.70555,0 -1.05833,0.17639 -1.05833,0.52916 0,0.35278 0.35278,0.52917 1.05833,0.52917 0.89371,0 1.05834,0.13719 1.05834,0.88195 0,0.83383 -0.10584,0.88194 -1.94028,0.88194 h -1.94028 z m 5.32076,0.26371 c -0.59808,-1.79523 -1.08743,-3.38273 -1.08743,-3.52777 0,-0.14505 0.37085,-0.26372 0.82411,-0.26372 0.7086,0 0.91231,0.30905 1.45339,2.20487 l 0.62928,2.20486 0.57508,-2.09249 c 0.4908,-1.78581 0.72037,-2.13117 1.56634,-2.35639 0.7012,-0.18668 0.94633,-0.14214 0.83775,0.15221 -0.0844,0.22886 -0.60986,1.88281 -1.16764,3.67543 -0.8689,2.79256 -1.12365,3.25988 -1.7788,3.2632 -0.65181,0.003 -0.92514,-0.47784 -1.85208,-3.2602 z m 4.98522,-0.17551 c 0.0958,-3.26296 0.14173,-3.44538 0.89472,-3.55232 0.77806,-0.1105 0.79375,-0.0425 0.79375,3.43959 v 3.55231 h -0.89472 -0.89472 z m 3.20777,2.96092 c 1.13153,-2.94872 2.91182,-6.56976 3.18522,-6.47863 0.3675,0.1225 2.99834,5.7712 3.03493,6.51632 0.0422,0.86012 -1.36856,0.47066 -1.59737,-0.44097 -0.18207,-0.72545 -0.43522,-0.88195 -1.42656,-0.88195 -0.96095,0 -1.27317,0.17874 -1.54052,0.88195 -0.21294,0.56006 -0.60979,0.88194 -1.08735,0.88194 -0.48827,0 -0.68761,-0.16788 -0.56835,-0.47866 z m 3.54794,-3.22348 c -0.11126,-0.28993 -0.3444,-0.43931 -0.5181,-0.33196 -0.49809,0.30784 -0.36829,0.8591 0.20228,0.8591 0.31471,0 0.43869,-0.20694 0.31582,-0.52714 z m 3.04664,0.17436 c 0,-3.29259 0.047,-3.52778 0.70556,-3.52778 0.64676,0 0.70556,0.23519 0.70556,2.82223 v 2.82222 h 1.23472 c 0.99954,0 1.23472,0.13439 1.23472,0.70555 0,0.62004 -0.23518,0.70556 -1.94028,0.70556 h -1.94028 z m 4.23334,0 v -3.52778 h 1.69333 c 1.97408,0 2.54,0.4323 2.54,1.94028 0,1.35563 -0.55276,1.94028 -1.83444,1.94028 -0.93552,0 -0.98778,0.084 -0.98778,1.5875 0,1.35231 -0.10453,1.5875 -0.70556,1.5875 -0.65851,0 -0.70555,-0.23519 -0.70555,-3.52778 z m 2.75584,-1.50335 c 0.0815,-0.42334 -0.10845,-0.61331 -0.61331,-0.61331 -0.50486,0 -0.73142,0.22656 -0.73142,0.73142 0,0.90404 1.16763,0.80148 1.34473,-0.11811 z m 2.18305,1.50335 c 0,-3.29259 0.047,-3.52778 0.70555,-3.52778 0.65852,0 0.70556,0.23519 0.70556,3.52778 0,3.29259 -0.047,3.52778 -0.70556,3.52778 -0.65852,0 -0.70555,-0.23519 -0.70555,-3.52778 z m 2.46944,0 c 0,-1.94028 0.11479,-3.52778 0.25509,-3.52778 0.14031,0 1.25156,0.98761 2.46945,2.19467 l 2.21435,2.19467 v -2.19467 c 0,-1.71563 0.1155,-2.19467 0.52917,-2.19467 0.43509,0 0.52916,0.62717 0.52916,3.52778 0,1.94028 -0.0641,3.52778 -0.14244,3.52778 -0.0783,0 -1.10722,-0.99219 -2.28639,-2.20486 l -2.14394,-2.20486 -0.007,2.20486 c -0.006,1.96745 -0.0826,2.20486 -0.71222,2.20486 -0.65852,0 -0.70556,-0.23519 -0.70556,-3.52778 z m -21.51944,-6.674 c 0,-0.59558 2.40516,-1.81973 5.62727,-2.86411 3.46208,-1.12217 5.86914,-2.50126 6.2033,-3.55409 0.11628,-0.36637 0.33663,-0.66613 0.48966,-0.66613 0.23881,0 3.55477,6.74787 3.55477,7.23385 0,0.096 -3.57188,0.17448 -7.9375,0.17448 -4.58657,0 -7.9375,-0.13678 -7.9375,-0.324 z m -4.93889,-0.92811 c 0,-0.15391 0.21096,-0.53046 0.4688,-0.83678 0.25785,-0.30632 1.71158,-2.70007 3.23051,-5.31944 1.51894,-2.61938 2.81513,-4.82767 2.88042,-4.90733 0.0653,-0.0796 0.42004,0.12787 0.78832,0.46116 0.64436,0.58313 0.75252,0.4988 2.86847,-2.23643 1.20937,-1.56332 2.31421,-2.8424 2.4552,-2.8424 0.26039,0 4.24161,8.24388 4.24161,8.78305 0,0.64449 -1.59476,2.2658 -2.67104,2.7155 -0.62781,0.26231 -2.98669,0.71882 -5.24195,1.01446 -3.99669,0.52392 -5.87124,1.1793 -8.22659,2.8762 -0.43657,0.31451 -0.79375,0.44592 -0.79375,0.29201 z"
         id="path19150" />
    </g>
  </g>
</svg>
