<svg id="Ebene_1" data-name="Ebene 1" xmlns="http://www.w3.org/2000/svg" viewBox="0 0 456.13 112.2"><defs><style>.cls-1{fill:#1d1d1b;}.cls-2{fill:#e4032e;}.cls-3{fill:#213a8f;}</style></defs><path class="cls-1" d="M83.51,93.2,78.35,107H76L72,96.53,68,107h-2.4L60.43,93.2H62.8l4,11L71,93.2h2.1l4.09,11,4.11-11Z"/><path class="cls-1" d="M98.06,100.93H86.87c.31,2.42,2.26,4,5,4a5.16,5.16,0,0,0,4-1.66l1.37,1.61a6.88,6.88,0,0,1-5.43,2.24c-4.45,0-7.42-2.94-7.42-7.05a6.75,6.75,0,0,1,6.92-7c4,0,6.82,2.86,6.82,7.1C98.11,100.38,98.08,100.69,98.06,100.93Zm-11.19-1.8h8.85a4.45,4.45,0,0,0-8.85,0Z"/><path class="cls-1" d="M106.83,105.53l1-2a8.9,8.9,0,0,0,4.84,1.43c2.32,0,3.28-.7,3.28-1.87,0-3.1-8.72-.42-8.72-5.91,0-2.47,2.22-4.14,5.75-4.14a10.07,10.07,0,0,1,5,1.25l-1.07,2a7.19,7.19,0,0,0-4-1.1c-2.19,0-3.25.81-3.25,1.9,0,3.26,8.74.6,8.74,6,0,2.5-2.29,4.09-6,4.09A9.9,9.9,0,0,1,106.83,105.53Z"/><path class="cls-1" d="M134.47,93.2V107H132.1v-2.08a5.62,5.62,0,0,1-4.68,2.24c-3.57,0-5.94-2-5.94-6V93.2H124v7.65c0,2.71,1.36,4.06,3.72,4.06,2.6,0,4.27-1.61,4.27-4.58V93.2Z"/><path class="cls-1" d="M153.52,100.1a6.7,6.7,0,0,1-7,7.05,5.9,5.9,0,0,1-4.81-2.24V112h-2.5V93.2h2.4v2.19a5.86,5.86,0,0,1,4.91-2.32A6.7,6.7,0,0,1,153.52,100.1Zm-2.53,0a4.64,4.64,0,1,0-4.65,4.86A4.55,4.55,0,0,0,151,100.1Z"/><path class="cls-1" d="M171.27,100.1a6.7,6.7,0,0,1-7,7.05,5.9,5.9,0,0,1-4.81-2.24V112H157V93.2h2.4v2.19a5.86,5.86,0,0,1,4.91-2.32A6.7,6.7,0,0,1,171.27,100.1Zm-2.53,0a4.64,4.64,0,1,0-4.65,4.86A4.55,4.55,0,0,0,168.74,100.1Z"/><path class="cls-1" d="M173.46,100.1a7.17,7.17,0,1,1,7.18,7.05A6.86,6.86,0,0,1,173.46,100.1Zm11.81,0a4.65,4.65,0,1,0-4.63,4.86A4.53,4.53,0,0,0,185.27,100.1Z"/><path class="cls-1" d="M198.68,93.07v2.42a3.89,3.89,0,0,0-.58,0c-2.68,0-4.34,1.64-4.34,4.66V107h-2.5V93.2h2.39v2.32C194.54,93.9,196.26,93.07,198.68,93.07Z"/><path class="cls-1" d="M210.08,106.18a4.68,4.68,0,0,1-3,1c-2.79,0-4.37-1.54-4.37-4.32V95.26h-2.35V93.2h2.35v-3h2.49v3h4v2.06h-4v7.46a2,2,0,0,0,2.16,2.32,3.12,3.12,0,0,0,1.95-.65Z"/><path class="cls-1" d="M243,99.06V107H240.5V99.34c0-2.7-1.3-4-3.57-4-2.5,0-4.14,1.59-4.14,4.58V107H230.3V99.34c0-2.7-1.3-4-3.57-4-2.5,0-4.13,1.59-4.13,4.58V107h-2.5V93.2h2.39v2.06a5.58,5.58,0,0,1,4.76-2.19A5.1,5.1,0,0,1,232,95.62a6.22,6.22,0,0,1,5.31-2.55C240.7,93.07,243,95,243,99.06Z"/><path class="cls-1" d="M247.16,88.93a1.65,1.65,0,0,1,1.7-1.64,1.63,1.63,0,1,1-1.7,1.64Zm.45,4.27h2.5V107h-2.5Z"/><path class="cls-1" d="M254.87,87.69h2.5V107h-2.5Z"/><path class="cls-1" d="M261.69,88.93a1.65,1.65,0,0,1,1.69-1.64,1.63,1.63,0,1,1-1.69,1.64Zm.44,4.27h2.5V107h-2.5Z"/><path class="cls-1" d="M277.15,106.18a4.68,4.68,0,0,1-3,1c-2.79,0-4.37-1.54-4.37-4.32V95.26h-2.35V93.2h2.35v-3h2.49v3h4v2.06h-4v7.46a2,2,0,0,0,2.16,2.32,3.16,3.16,0,0,0,2-.65Z"/><path class="cls-1" d="M291.09,98.67V107h-2.36v-1.82c-.83,1.25-2.37,2-4.53,2-3.12,0-5.1-1.67-5.1-4.06,0-2.21,1.43-4,5.54-4h4v-.5c0-2.11-1.23-3.33-3.7-3.33a7,7,0,0,0-4.37,1.48l-1-1.87a9.22,9.22,0,0,1,5.7-1.77C289,93.07,291.09,94.89,291.09,98.67Zm-2.49,4.11v-1.93h-3.85c-2.48,0-3.18,1-3.18,2.13,0,1.38,1.15,2.24,3.05,2.24A4,4,0,0,0,288.6,102.78Z"/><path class="cls-1" d="M303.15,93.07v2.42a3.89,3.89,0,0,0-.58,0c-2.68,0-4.34,1.64-4.34,4.66V107h-2.5V93.2h2.39v2.32C299,93.9,300.73,93.07,303.15,93.07Z"/><path class="cls-1" d="M319,93.2l-6.68,15.17c-1.23,2.92-2.81,3.83-4.92,3.83a5.19,5.19,0,0,1-3.54-1.28l1.07-1.87a3.5,3.5,0,0,0,2.47,1c1.2,0,1.95-.54,2.63-2.13l.44-1L304.37,93.2H307l4.82,11,4.76-11Z"/><path class="cls-1" d="M342.63,100.1a6.7,6.7,0,0,1-7,7.05,5.89,5.89,0,0,1-4.81-2.24V112h-2.5V93.2h2.39v2.19a5.87,5.87,0,0,1,4.92-2.32A6.7,6.7,0,0,1,342.63,100.1Zm-2.53,0a4.65,4.65,0,1,0-4.66,4.86A4.55,4.55,0,0,0,340.1,100.1Z"/><path class="cls-1" d="M358.5,100.93H347.31a4.68,4.68,0,0,0,5,4,5.14,5.14,0,0,0,4-1.66l1.38,1.61a6.92,6.92,0,0,1-5.44,2.24c-4.45,0-7.41-2.94-7.41-7.05a6.75,6.75,0,0,1,6.92-7c4,0,6.81,2.86,6.81,7.1A6.91,6.91,0,0,1,358.5,100.93Zm-11.19-1.8h8.85a4.45,4.45,0,0,0-8.85,0Z"/><path class="cls-1" d="M369.44,93.07v2.42a4,4,0,0,0-.58,0c-2.68,0-4.34,1.64-4.34,4.66V107H362V93.2h2.39v2.32C365.3,93.9,367,93.07,369.44,93.07Z"/><path class="cls-1" d="M370.87,105.53l1-2a8.87,8.87,0,0,0,4.84,1.43c2.31,0,3.28-.7,3.28-1.87,0-3.1-8.72-.42-8.72-5.91,0-2.47,2.21-4.14,5.75-4.14a10,10,0,0,1,5,1.25l-1.06,2a7.19,7.19,0,0,0-4-1.1c-2.19,0-3.26.81-3.26,1.9,0,3.26,8.75.6,8.75,6,0,2.5-2.29,4.09-6,4.09A9.88,9.88,0,0,1,370.87,105.53Z"/><path class="cls-1" d="M384.38,100.1a7.17,7.17,0,1,1,7.18,7.05A6.86,6.86,0,0,1,384.38,100.1Zm11.81,0a4.65,4.65,0,1,0-4.63,4.86A4.53,4.53,0,0,0,396.19,100.1Z"/><path class="cls-1" d="M415.27,99.06V107h-2.5V99.34c0-2.7-1.36-4-3.72-4-2.66,0-4.37,1.59-4.37,4.58V107h-2.5V93.2h2.39v2.08a5.94,5.94,0,0,1,5-2.21C412.9,93.07,415.27,95,415.27,99.06Z"/><path class="cls-1" d="M433,99.06V107h-2.5V99.34c0-2.7-1.35-4-3.72-4-2.65,0-4.37,1.59-4.37,4.58V107h-2.5V93.2h2.39v2.08a5.94,5.94,0,0,1,5-2.21C430.62,93.07,433,95,433,99.06Z"/><path class="cls-1" d="M450.11,100.93H438.93c.31,2.42,2.26,4,5,4a5.14,5.14,0,0,0,4-1.66l1.38,1.61a6.92,6.92,0,0,1-5.44,2.24c-4.45,0-7.41-2.94-7.41-7.05a6.75,6.75,0,0,1,6.92-7c4,0,6.82,2.86,6.82,7.1A7,7,0,0,1,450.11,100.93Zm-11.18-1.8h8.84a4.45,4.45,0,0,0-8.84,0Z"/><path class="cls-1" d="M453.63,87.69h2.5V107h-2.5Z"/><path class="cls-1" d="M0,41.83c0-16.35,12.55-28,29.45-28,9.38,0,17.2,3.41,22.32,9.61l-8.06,7.44a17.45,17.45,0,0,0-13.64-6.36c-10.15,0-17.36,7.13-17.36,17.36s7.21,17.36,17.36,17.36a17.3,17.3,0,0,0,13.64-6.43l8.06,7.44c-5.12,6.28-12.94,9.69-22.4,9.69C12.55,69.89,0,58.18,0,41.83Z"/><path class="cls-1" d="M102.22,58.88V69h-42V14.71h41V24.78H72.69V36.56H97.88v9.77H72.69V58.88Z"/><path class="cls-1" d="M163.59,14.71,140.11,69h-12.4l-23.4-54.25h13.56l16.5,38.75,16.75-38.75Z"/><path class="cls-1" d="M168.08,14.71h12.56V69H168.08Z"/><path class="cls-1" d="M242.87,69l-.08-32.55-16,26.81h-5.65L205.28,37.11V69H193.5V14.71h10.38l20.31,33.71,20-33.71h10.3L254.65,69Z"/><path class="cls-1" d="M267.51,14.71h12.55V69H267.51Z"/><path class="cls-1" d="M292.92,14.71h12.56v44h27.2V69H292.92Z"/><path class="cls-2" d="M379.44,49.48a67.73,67.73,0,0,1-14.18,2.57l17,17,6.05-22.54c-2.68,1-5.64,2-8.89,3"/><path class="cls-2" d="M394.59,21.39a80.63,80.63,0,0,1-20.86,9.53c-9.71,2.81-19.6,3.69-27.16,2.39L335,21.76l64-17.2-4.49,16.83"/><path class="cls-3" d="M335.41,26.27a5.57,5.57,0,0,1-.18-1l6.87,6.85c-3.71-1.34-6-1.16-6.69-5.85"/><path class="cls-3" d="M404,33.48c-4.85,6-12.63,10.21-25.18,13.86C366,51,353.23,50.89,346.25,47c-2.45-1.37-4-3.05-4.57-5.06L338,32.82a1.53,1.53,0,0,1,.41.27c7.53,4.14,21.63,4.16,35.95.07,11.45-3.31,23.46-10,29.62-16.42V33.48"/><path class="cls-3" d="M382.28,6.79,337.54,18.72c4.61-6.55,15.42-13,27.92-16.62A65.45,65.45,0,0,1,382.28,0V6.79"/></svg>